# xmcd
#
# Track frame offsets:
#	150
#	17690
#	34412
#	48330
#	67655
#	97680
#	116395
#	135680
#	157897
#	177525
#	189715
#	205860
#	226807
#
# Disc length: 3275 seconds
#
# Revision: 1
# Processed by: cddbd v1.4PL0 Copyright (c) Steve Scherf et al.
# Submitted via: audiograbber 1.81.02
#
DISCID=a00cc90d
DTITLE=The Pocket Rockets (featuring Blind Mississippi Morris) - Bad to Worse
DYEAR=1900
DGENRE=Rock
TTITLE0=Bad to Worse
TTITLE1=Gimme Gimme
TTITLE2=Small Town Blues
TTITLE3=Love Jones
TTITLE4=Hurry Sundown
TTITLE5=Singing the Blues
TTITLE6=Last Good-bye
TTITLE7=Willie
TTITLE8=Built for Comfort
TTITLE9=Cotton Pickin Blues
TTITLE10=Mississippi Jukin
TTITLE11=Hwy 17
TTITLE12=Nightroads
EXTD=
EXTT0=
EXTT1=
EXTT2=
EXTT3=
EXTT4=
EXTT5=
EXTT6=
EXTT7=
EXTT8=
EXTT9=
EXTT10=
EXTT11=
EXTT12=
PLAYORDER=
